<svg width="424" height="448" viewBox="0 0 424 448" fill="none" xmlns="http://www.w3.org/2000/svg">
    <circle cx="147.939" cy="147.939" r="147.939" fill="#E1FFFE"/>
    <circle cx="365.009" cy="388.05" r="58.9911" fill="#EDF8FF"/>
    <g clip-path="url(#clip0)">
        <path d="M352.796 64.0137H120.444C117.278 64.0137 114.711 66.5801 114.711 69.746V397.638C114.711 400.803 117.278 403.37 120.444 403.37H352.796C355.962 403.37 358.528 400.803 358.528 397.638V69.746C358.528 66.5801 355.962 64.0137 352.796 64.0137Z" fill="white" stroke="#B5C4CF"/>
        <path d="M343.592 123.598H129.583C126.417 123.598 123.851 126.164 123.851 129.33V147.674C123.851 150.84 126.417 153.406 129.583 153.406H343.592C346.758 153.406 349.324 150.84 349.324 147.674V129.33C349.324 126.164 346.758 123.598 343.592 123.598Z" fill="#EDF8FF" stroke="#4FA3DD"/>
        <path d="M134.302 142.324H133.541V135.776H137.19V136.452H134.302V138.848H137.016V139.525H134.302V142.324ZM138.865 137.415V140.599C138.865 141 138.956 141.298 139.139 141.495C139.321 141.692 139.606 141.791 139.994 141.791C140.507 141.791 140.882 141.65 141.118 141.37C141.357 141.089 141.476 140.631 141.476 139.995V137.415H142.22V142.324H141.606L141.499 141.666H141.458C141.306 141.907 141.094 142.092 140.822 142.22C140.554 142.349 140.246 142.413 139.9 142.413C139.303 142.413 138.855 142.272 138.556 141.988C138.261 141.704 138.113 141.251 138.113 140.626V137.415H138.865ZM144.544 142.324H143.801V135.355H144.544V142.324ZM146.864 142.324H146.12V135.355H146.864V142.324ZM154.629 140.582C154.629 141.158 154.42 141.607 154.002 141.929C153.584 142.252 153.017 142.413 152.301 142.413C151.524 142.413 150.927 142.313 150.509 142.113V141.379C150.778 141.492 151.071 141.582 151.387 141.647C151.704 141.713 152.017 141.746 152.327 141.746C152.835 141.746 153.217 141.65 153.474 141.459C153.731 141.265 153.859 140.997 153.859 140.653C153.859 140.427 153.813 140.241 153.72 140.098C153.631 139.952 153.478 139.817 153.263 139.695C153.052 139.572 152.728 139.434 152.292 139.278C151.683 139.06 151.247 138.802 150.984 138.504C150.724 138.205 150.594 137.815 150.594 137.335C150.594 136.83 150.784 136.429 151.163 136.13C151.542 135.831 152.044 135.682 152.668 135.682C153.319 135.682 153.917 135.802 154.464 136.04L154.226 136.703C153.686 136.476 153.161 136.363 152.65 136.363C152.247 136.363 151.932 136.45 151.705 136.623C151.478 136.796 151.365 137.036 151.365 137.344C151.365 137.571 151.406 137.757 151.49 137.903C151.574 138.047 151.714 138.18 151.911 138.302C152.111 138.421 152.416 138.554 152.825 138.701C153.511 138.945 153.983 139.208 154.24 139.489C154.5 139.769 154.629 140.134 154.629 140.582ZM157.818 142.413C157.107 142.413 156.557 142.195 156.166 141.76C155.777 141.321 155.583 140.701 155.583 139.901C155.583 139.08 155.78 138.445 156.174 137.997C156.572 137.55 157.136 137.326 157.867 137.326C158.103 137.326 158.339 137.351 158.575 137.402C158.811 137.453 158.996 137.512 159.13 137.581L158.902 138.212C158.738 138.147 158.559 138.093 158.364 138.051C158.17 138.006 157.999 137.984 157.849 137.984C156.852 137.984 156.354 138.62 156.354 139.892C156.354 140.495 156.475 140.958 156.716 141.28C156.961 141.603 157.322 141.764 157.8 141.764C158.209 141.764 158.629 141.676 159.059 141.5V142.158C158.73 142.328 158.317 142.413 157.818 142.413ZM162.467 137.326C162.685 137.326 162.88 137.344 163.053 137.379L162.95 138.069C162.747 138.024 162.568 138.002 162.413 138.002C162.016 138.002 161.675 138.163 161.392 138.486C161.111 138.808 160.971 139.21 160.971 139.69V142.324H160.227V137.415H160.841L160.926 138.324H160.962C161.144 138.005 161.363 137.759 161.62 137.586C161.877 137.412 162.159 137.326 162.467 137.326ZM166.045 142.413C165.319 142.413 164.746 142.192 164.325 141.75C163.907 141.309 163.698 140.695 163.698 139.91C163.698 139.119 163.892 138.49 164.28 138.024C164.671 137.559 165.196 137.326 165.852 137.326C166.467 137.326 166.954 137.529 167.312 137.935C167.671 138.338 167.85 138.871 167.85 139.534V140.004H164.468C164.483 140.58 164.628 141.017 164.903 141.316C165.181 141.614 165.57 141.764 166.072 141.764C166.6 141.764 167.123 141.653 167.639 141.432V142.095C167.376 142.209 167.127 142.289 166.891 142.337C166.658 142.388 166.376 142.413 166.045 142.413ZM165.843 137.948C165.449 137.948 165.134 138.077 164.898 138.333C164.666 138.59 164.528 138.945 164.486 139.399H167.052C167.052 138.93 166.948 138.572 166.739 138.324C166.53 138.074 166.231 137.948 165.843 137.948ZM171.195 142.413C170.47 142.413 169.896 142.192 169.475 141.75C169.057 141.309 168.848 140.695 168.848 139.91C168.848 139.119 169.042 138.49 169.431 138.024C169.822 137.559 170.346 137.326 171.002 137.326C171.618 137.326 172.104 137.529 172.462 137.935C172.821 138.338 173 138.871 173 139.534V140.004H169.619C169.634 140.58 169.778 141.017 170.053 141.316C170.331 141.614 170.72 141.764 171.222 141.764C171.75 141.764 172.273 141.653 172.789 141.432V142.095C172.527 142.209 172.277 142.289 172.041 142.337C171.809 142.388 171.526 142.413 171.195 142.413ZM170.994 137.948C170.599 137.948 170.284 138.077 170.049 138.333C169.816 138.59 169.678 138.945 169.637 139.399H172.203C172.203 138.93 172.098 138.572 171.889 138.324C171.68 138.074 171.382 137.948 170.994 137.948ZM177.631 142.324V139.148C177.631 138.748 177.539 138.45 177.357 138.253C177.175 138.056 176.89 137.957 176.502 137.957C175.988 137.957 175.612 138.096 175.373 138.374C175.135 138.651 175.015 139.11 175.015 139.749V142.324H174.272V137.415H174.876L174.997 138.087H175.033C175.185 137.845 175.399 137.659 175.673 137.527C175.948 137.393 176.254 137.326 176.592 137.326C177.183 137.326 177.628 137.469 177.926 137.756C178.225 138.039 178.374 138.495 178.374 139.122V142.324H177.631Z" fill="#153C55"/>
        <path d="M286.534 140.546C286.534 141.128 286.323 141.585 285.902 141.916C285.482 142.247 284.901 142.413 284.16 142.413C283.419 142.413 282.813 142.298 282.342 142.068V141.056C282.641 141.196 282.957 141.307 283.291 141.387C283.629 141.468 283.942 141.509 284.232 141.509C284.656 141.509 284.968 141.428 285.168 141.267C285.371 141.105 285.472 140.889 285.472 140.618C285.472 140.372 285.38 140.165 285.195 139.995C285.01 139.825 284.628 139.623 284.049 139.39C283.451 139.148 283.03 138.872 282.785 138.562C282.541 138.251 282.418 137.878 282.418 137.442C282.418 136.896 282.612 136.466 283.001 136.152C283.388 135.839 283.909 135.682 284.564 135.682C285.19 135.682 285.814 135.819 286.435 136.094L286.095 136.967C285.513 136.723 284.993 136.6 284.536 136.6C284.19 136.6 283.928 136.676 283.748 136.829C283.569 136.978 283.48 137.176 283.48 137.424C283.48 137.594 283.515 137.741 283.587 137.863C283.659 137.983 283.776 138.096 283.941 138.204C284.105 138.311 284.401 138.453 284.827 138.629C285.308 138.829 285.66 139.016 285.884 139.189C286.108 139.362 286.273 139.558 286.377 139.775C286.481 139.993 286.534 140.25 286.534 140.546ZM289.852 142.413C289.082 142.413 288.479 142.189 288.043 141.741C287.61 141.29 287.394 140.671 287.394 139.883C287.394 139.074 287.595 138.438 287.999 137.975C288.401 137.512 288.955 137.281 289.66 137.281C290.314 137.281 290.83 137.48 291.209 137.877C291.588 138.274 291.778 138.82 291.778 139.516V140.084H288.478C288.492 140.565 288.622 140.936 288.867 141.195C289.112 141.452 289.457 141.58 289.902 141.58C290.194 141.58 290.466 141.553 290.716 141.5C290.97 141.443 291.242 141.351 291.532 141.222V142.078C291.275 142.2 291.015 142.286 290.752 142.337C290.489 142.388 290.19 142.413 289.852 142.413ZM289.66 138.078C289.325 138.078 289.056 138.184 288.854 138.396C288.654 138.608 288.534 138.917 288.495 139.323H290.743C290.738 138.914 290.639 138.605 290.448 138.396C290.257 138.184 289.994 138.078 289.66 138.078ZM294.026 142.324H292.973V135.355H294.026V142.324ZM297.698 142.413C296.928 142.413 296.325 142.189 295.889 141.741C295.456 141.29 295.24 140.671 295.24 139.883C295.24 139.074 295.441 138.438 295.844 137.975C296.248 137.512 296.801 137.281 297.506 137.281C298.16 137.281 298.676 137.48 299.055 137.877C299.435 138.274 299.625 138.82 299.625 139.516V140.084H296.323C296.339 140.565 296.469 140.936 296.713 141.195C296.958 141.452 297.303 141.58 297.748 141.58C298.04 141.58 298.312 141.553 298.563 141.5C298.817 141.443 299.088 141.351 299.378 141.222V142.078C299.121 142.2 298.862 142.286 298.599 142.337C298.336 142.388 298.035 142.413 297.698 142.413ZM297.506 138.078C297.172 138.078 296.903 138.184 296.699 138.396C296.5 138.608 296.38 138.917 296.342 139.323H298.59C298.584 138.914 298.485 138.605 298.294 138.396C298.103 138.184 297.841 138.078 297.506 138.078ZM302.817 142.413C302.068 142.413 301.498 142.195 301.107 141.76C300.718 141.321 300.524 140.692 300.524 139.874C300.524 139.041 300.727 138.401 301.133 137.953C301.542 137.505 302.132 137.281 302.903 137.281C303.425 137.281 303.895 137.378 304.313 137.572L303.995 138.418C303.55 138.245 303.183 138.159 302.893 138.159C302.037 138.159 301.608 138.727 301.608 139.865C301.608 140.421 301.714 140.839 301.926 141.119C302.141 141.397 302.455 141.536 302.867 141.536C303.335 141.536 303.779 141.419 304.197 141.186V142.104C304.009 142.214 303.807 142.294 303.592 142.341C303.38 142.389 303.122 142.413 302.817 142.413ZM307.207 141.562C307.463 141.562 307.719 141.522 307.976 141.442V142.234C307.86 142.285 307.709 142.327 307.524 142.36C307.342 142.396 307.152 142.413 306.955 142.413C305.958 142.413 305.459 141.888 305.459 140.837V138.168H304.784V137.702L305.509 137.317L305.867 136.269H306.516V137.371H307.927V138.168H306.516V140.819C306.516 141.072 306.579 141.261 306.704 141.384C306.833 141.503 307 141.562 307.207 141.562ZM315.24 140.546C315.24 141.128 315.03 141.585 314.609 141.916C314.188 142.247 313.608 142.413 312.867 142.413C312.126 142.413 311.52 142.298 311.049 142.068V141.056C311.347 141.196 311.664 141.307 311.998 141.387C312.335 141.468 312.649 141.509 312.939 141.509C313.362 141.509 313.674 141.428 313.874 141.267C314.078 141.105 314.179 140.889 314.179 140.618C314.179 140.372 314.086 140.165 313.901 139.995C313.716 139.825 313.334 139.623 312.755 139.39C312.158 139.148 311.737 138.872 311.492 138.562C311.247 138.251 311.124 137.878 311.124 137.442C311.124 136.896 311.319 136.466 311.707 136.152C312.095 135.839 312.616 135.682 313.27 135.682C313.897 135.682 314.521 135.819 315.142 136.094L314.802 136.967C314.219 136.723 313.7 136.6 313.243 136.6C312.897 136.6 312.634 136.676 312.455 136.829C312.275 136.978 312.186 137.176 312.186 137.424C312.186 137.594 312.222 137.741 312.294 137.863C312.366 137.983 312.483 138.096 312.648 138.204C312.812 138.311 313.107 138.453 313.534 138.629C314.015 138.829 314.367 139.016 314.591 139.189C314.815 139.362 314.979 139.558 315.084 139.775C315.188 139.993 315.24 140.25 315.24 140.546ZM318.393 142.413C317.644 142.413 317.074 142.195 316.683 141.76C316.294 141.321 316.1 140.692 316.1 139.874C316.1 139.041 316.303 138.401 316.709 137.953C317.118 137.505 317.708 137.281 318.479 137.281C319.001 137.281 319.471 137.378 319.889 137.572L319.571 138.418C319.126 138.245 318.759 138.159 318.469 138.159C317.613 138.159 317.184 138.727 317.184 139.865C317.184 140.421 317.29 140.839 317.502 141.119C317.717 141.397 318.031 141.536 318.443 141.536C318.911 141.536 319.355 141.419 319.773 141.186V142.104C319.585 142.214 319.383 142.294 319.168 142.341C318.956 142.389 318.698 142.413 318.393 142.413ZM323.449 137.281C323.661 137.281 323.836 137.296 323.973 137.326L323.87 138.306C323.721 138.271 323.566 138.253 323.405 138.253C322.984 138.253 322.642 138.39 322.379 138.665C322.119 138.94 321.989 139.296 321.989 139.735V142.324H320.937V137.371H321.761L321.9 138.244H321.953C322.118 137.948 322.332 137.714 322.594 137.541C322.86 137.368 323.145 137.281 323.449 137.281ZM327.059 142.413C326.288 142.413 325.685 142.189 325.25 141.741C324.817 141.29 324.6 140.671 324.6 139.883C324.6 139.074 324.802 138.438 325.205 137.975C325.608 137.512 326.162 137.281 326.866 137.281C327.521 137.281 328.036 137.48 328.416 137.877C328.795 138.274 328.985 138.82 328.985 139.516V140.084H325.684C325.699 140.565 325.829 140.936 326.074 141.195C326.318 141.452 326.664 141.58 327.109 141.58C327.401 141.58 327.673 141.553 327.923 141.5C328.177 141.443 328.449 141.351 328.738 141.222V142.078C328.481 142.2 328.222 142.286 327.959 142.337C327.696 142.388 327.397 142.413 327.059 142.413ZM326.866 138.078C326.532 138.078 326.263 138.184 326.06 138.396C325.86 138.608 325.741 138.917 325.702 139.323H327.95C327.944 138.914 327.845 138.605 327.654 138.396C327.463 138.184 327.201 138.078 326.866 138.078ZM332.343 142.413C331.573 142.413 330.97 142.189 330.534 141.741C330.102 141.29 329.885 140.671 329.885 139.883C329.885 139.074 330.086 138.438 330.489 137.975C330.893 137.512 331.446 137.281 332.151 137.281C332.805 137.281 333.321 137.48 333.701 137.877C334.08 138.274 334.269 138.82 334.269 139.516V140.084H330.968C330.984 140.565 331.114 140.936 331.358 141.195C331.603 141.452 331.948 141.58 332.393 141.58C332.685 141.58 332.957 141.553 333.208 141.5C333.462 141.443 333.734 141.351 334.023 141.222V142.078C333.767 142.2 333.507 142.286 333.244 142.337C332.981 142.388 332.681 142.413 332.343 142.413ZM332.151 138.078C331.817 138.078 331.548 138.184 331.345 138.396C331.145 138.608 331.026 138.917 330.987 139.323H333.235C333.228 138.914 333.13 138.605 332.939 138.396C332.748 138.184 332.486 138.078 332.151 138.078ZM339.822 142.324H338.766V139.278C338.766 138.896 338.688 138.611 338.533 138.423C338.381 138.235 338.137 138.141 337.803 138.141C337.358 138.141 337.032 138.272 336.826 138.535C336.62 138.798 336.517 139.238 336.517 139.856V142.324H335.465V137.371H336.289L336.437 138.02H336.491C336.64 137.784 336.852 137.602 337.126 137.474C337.401 137.345 337.706 137.281 338.04 137.281C339.228 137.281 339.822 137.886 339.822 139.095V142.324Z" fill="#153C55"/>
        <path d="M136.344 173.05C135.625 173.05 135.056 173.291 134.638 173.771C134.223 174.249 134.015 174.904 134.015 175.737C134.015 176.594 134.215 177.257 134.615 177.725C135.018 178.191 135.592 178.424 136.335 178.424C136.792 178.424 137.313 178.342 137.898 178.178V178.845C137.444 179.015 136.884 179.1 136.219 179.1C135.254 179.1 134.509 178.807 133.984 178.223C133.461 177.637 133.2 176.806 133.2 175.728C133.2 175.053 133.326 174.462 133.576 173.955C133.83 173.447 134.194 173.056 134.669 172.782C135.147 172.506 135.708 172.37 136.353 172.37C137.04 172.37 137.64 172.495 138.153 172.746L137.831 173.399C137.335 173.167 136.84 173.05 136.344 173.05ZM139.913 174.102V177.286C139.913 177.687 140.004 177.985 140.186 178.182C140.369 178.379 140.654 178.478 141.042 178.478C141.555 178.478 141.93 178.337 142.166 178.057C142.405 177.776 142.524 177.318 142.524 176.682V174.102H143.268V179.011H142.654L142.547 178.353H142.506C142.354 178.594 142.142 178.779 141.87 178.908C141.602 179.036 141.294 179.1 140.948 179.1C140.351 179.1 139.903 178.959 139.604 178.675C139.309 178.391 139.161 177.938 139.161 177.313V174.102H139.913ZM148.015 177.672C148.015 178.129 147.845 178.481 147.504 178.729C147.164 178.976 146.686 179.1 146.071 179.1C145.42 179.1 144.913 178.997 144.549 178.791V178.102C144.784 178.221 145.037 178.315 145.305 178.384C145.577 178.453 145.838 178.486 146.089 178.486C146.477 178.486 146.776 178.425 146.985 178.303C147.194 178.178 147.298 177.988 147.298 177.734C147.298 177.543 147.215 177.38 147.047 177.246C146.883 177.109 146.561 176.948 146.08 176.763C145.623 176.592 145.298 176.445 145.104 176.32C144.913 176.191 144.769 176.046 144.674 175.885C144.581 175.723 144.535 175.531 144.535 175.307C144.535 174.907 144.698 174.592 145.023 174.362C145.349 174.129 145.795 174.013 146.362 174.013C146.891 174.013 147.407 174.121 147.912 174.335L147.648 174.94C147.155 174.737 146.709 174.635 146.309 174.635C145.956 174.635 145.69 174.691 145.511 174.801C145.332 174.912 145.243 175.064 145.243 175.258C145.243 175.389 145.275 175.501 145.341 175.594C145.41 175.686 145.519 175.775 145.668 175.858C145.817 175.941 146.104 176.063 146.528 176.221C147.11 176.433 147.503 176.646 147.706 176.861C147.912 177.076 148.015 177.346 148.015 177.672ZM150.814 178.486C150.945 178.486 151.072 178.478 151.194 178.46C151.317 178.439 151.414 178.418 151.486 178.397V178.966C151.405 179.005 151.286 179.036 151.127 179.06C150.972 179.087 150.832 179.1 150.706 179.1C149.757 179.1 149.282 178.6 149.282 177.6V174.68H148.579V174.322L149.282 174.013L149.596 172.965H150.026V174.102H151.45V174.68H150.026V177.568C150.026 177.864 150.096 178.091 150.236 178.249C150.376 178.408 150.569 178.486 150.814 178.486ZM156.707 176.552C156.707 177.352 156.506 177.977 156.103 178.428C155.7 178.876 155.143 179.1 154.432 179.1C153.993 179.1 153.604 178.997 153.263 178.791C152.923 178.585 152.66 178.29 152.475 177.905C152.29 177.52 152.198 177.069 152.198 176.552C152.198 175.752 152.398 175.13 152.798 174.685C153.198 174.237 153.753 174.013 154.464 174.013C155.15 174.013 155.695 174.241 156.098 174.698C156.504 175.155 156.707 175.773 156.707 176.552ZM152.968 176.552C152.968 177.179 153.093 177.657 153.344 177.985C153.595 178.314 153.964 178.478 154.45 178.478C154.937 178.478 155.306 178.315 155.556 177.99C155.81 177.661 155.937 177.182 155.937 176.552C155.937 175.928 155.81 175.455 155.556 175.133C155.306 174.807 154.934 174.644 154.441 174.644C153.955 174.644 153.587 174.804 153.34 175.123C153.092 175.443 152.968 175.919 152.968 176.552ZM164.271 179.011V175.817C164.271 175.427 164.188 175.134 164.021 174.94C163.853 174.743 163.594 174.644 163.241 174.644C162.779 174.644 162.437 174.777 162.216 175.043C161.995 175.308 161.884 175.717 161.884 176.27V179.011H161.141V175.817C161.141 175.427 161.057 175.134 160.89 174.94C160.723 174.743 160.462 174.644 160.106 174.644C159.641 174.644 159.299 174.785 159.081 175.065C158.866 175.343 158.759 175.8 158.759 176.436V179.011H158.015V174.102H158.62L158.741 174.774H158.776C158.917 174.536 159.114 174.348 159.368 174.215C159.624 174.08 159.911 174.013 160.227 174.013C160.995 174.013 161.496 174.29 161.732 174.846H161.768C161.914 174.589 162.126 174.386 162.404 174.237C162.682 174.088 162.998 174.013 163.353 174.013C163.909 174.013 164.324 174.156 164.598 174.442C164.876 174.727 165.015 175.182 165.015 175.809V179.011H164.271Z" fill="#153C55"/>
        <path d="M295.84 177.233C295.84 177.815 295.63 178.272 295.208 178.603C294.787 178.934 294.207 179.1 293.466 179.1C292.726 179.1 292.12 178.986 291.648 178.755V177.744C291.947 177.883 292.263 177.994 292.597 178.074C292.935 178.155 293.249 178.196 293.538 178.196C293.962 178.196 294.274 178.115 294.474 177.954C294.677 177.792 294.779 177.576 294.779 177.305C294.779 177.059 294.686 176.852 294.501 176.682C294.316 176.511 293.933 176.31 293.354 176.077C292.757 175.836 292.336 175.559 292.091 175.249C291.847 174.938 291.725 174.565 291.725 174.129C291.725 173.583 291.919 173.153 292.306 172.84C292.695 172.526 293.216 172.37 293.869 172.37C294.497 172.37 295.12 172.506 295.742 172.782L295.401 173.654C294.819 173.41 294.3 173.288 293.843 173.288C293.496 173.288 293.233 173.363 293.055 173.516C292.876 173.665 292.785 173.864 292.785 174.111C292.785 174.281 292.821 174.428 292.893 174.55C292.965 174.669 293.083 174.783 293.247 174.89C293.411 174.998 293.706 175.14 294.134 175.316C294.615 175.516 294.967 175.703 295.191 175.876C295.415 176.049 295.579 176.245 295.683 176.463C295.788 176.68 295.84 176.937 295.84 177.233ZM299.158 179.1C298.388 179.1 297.785 178.876 297.349 178.428C296.917 177.977 296.7 177.358 296.7 176.57C296.7 175.761 296.901 175.125 297.304 174.663C297.708 174.199 298.261 173.968 298.966 173.968C299.62 173.968 300.137 174.167 300.516 174.564C300.895 174.961 301.084 175.507 301.084 176.203V176.771H297.783C297.799 177.252 297.929 177.623 298.173 177.882C298.418 178.139 298.763 178.267 299.208 178.267C299.5 178.267 299.772 178.24 300.023 178.187C300.277 178.13 300.549 178.038 300.838 177.909V178.765C300.582 178.887 300.322 178.973 300.059 179.025C299.796 179.075 299.496 179.1 299.158 179.1ZM298.966 174.765C298.632 174.765 298.363 174.871 298.16 175.083C297.96 175.295 297.841 175.604 297.802 176.01H300.05C300.043 175.601 299.946 175.292 299.755 175.083C299.563 174.871 299.301 174.765 298.966 174.765ZM303.332 179.011H302.28V172.042H303.332V179.011ZM307.005 179.1C306.234 179.1 305.631 178.876 305.196 178.428C304.762 177.977 304.546 177.358 304.546 176.57C304.546 175.761 304.748 175.125 305.151 174.663C305.553 174.199 306.108 173.968 306.812 173.968C307.466 173.968 307.982 174.167 308.361 174.564C308.741 174.961 308.93 175.507 308.93 176.203V176.771H305.63C305.645 177.252 305.774 177.623 306.02 177.882C306.264 178.139 306.609 178.267 307.054 178.267C307.346 178.267 307.619 178.24 307.869 178.187C308.123 178.13 308.394 178.038 308.684 177.909V178.765C308.427 178.887 308.167 178.973 307.905 179.025C307.642 179.075 307.342 179.1 307.005 179.1ZM306.812 174.765C306.477 174.765 306.209 174.871 306.006 175.083C305.806 175.295 305.686 175.604 305.647 176.01H307.896C307.89 175.601 307.791 175.292 307.6 175.083C307.409 174.871 307.146 174.765 306.812 174.765ZM312.123 179.1C311.374 179.1 310.804 178.882 310.413 178.447C310.025 178.008 309.83 177.379 309.83 176.561C309.83 175.728 310.034 175.088 310.44 174.64C310.849 174.192 311.439 173.968 312.208 173.968C312.731 173.968 313.201 174.065 313.619 174.259L313.301 175.106C312.856 174.932 312.49 174.846 312.2 174.846C311.343 174.846 310.914 175.415 310.914 176.552C310.914 177.108 311.021 177.526 311.232 177.806C311.447 178.084 311.761 178.223 312.173 178.223C312.642 178.223 313.085 178.106 313.503 177.873V178.791C313.315 178.901 313.113 178.981 312.898 179.028C312.686 179.076 312.428 179.1 312.123 179.1ZM316.512 178.249C316.769 178.249 317.026 178.209 317.283 178.129V178.921C317.166 178.972 317.016 179.014 316.83 179.047C316.648 179.083 316.459 179.1 316.261 179.1C315.265 179.1 314.766 178.575 314.766 177.524V174.854H314.089V174.389L314.815 174.004L315.173 172.956H315.823V174.058H317.234V174.854H315.823V177.506C315.823 177.76 315.885 177.948 316.011 178.071C316.139 178.19 316.307 178.249 316.512 178.249ZM324.833 179.011L324.18 177.192H321.676L321.035 179.011H319.907L322.357 172.436H323.521L325.971 179.011H324.833ZM323.897 176.27L323.284 174.488C323.239 174.368 323.176 174.18 323.096 173.923C323.018 173.667 322.964 173.479 322.935 173.359C322.854 173.726 322.736 174.128 322.581 174.564L321.989 176.27H323.897ZM329.236 173.968C329.447 173.968 329.622 173.983 329.759 174.013L329.657 174.994C329.507 174.958 329.352 174.94 329.191 174.94C328.769 174.94 328.428 175.078 328.165 175.352C327.906 175.626 327.776 175.983 327.776 176.422V179.011H326.723V174.058H327.547L327.686 174.931H327.74C327.904 174.635 328.117 174.401 328.38 174.228C328.646 174.055 328.931 173.968 329.236 173.968ZM332.845 179.1C332.075 179.1 331.472 178.876 331.036 178.428C330.603 177.977 330.387 177.358 330.387 176.57C330.387 175.761 330.588 175.125 330.991 174.663C331.394 174.199 331.948 173.968 332.653 173.968C333.306 173.968 333.823 174.167 334.202 174.564C334.581 174.961 334.771 175.507 334.771 176.203V176.771H331.471C331.485 177.252 331.615 177.623 331.86 177.882C332.105 178.139 332.45 178.267 332.894 178.267C333.187 178.267 333.459 178.24 333.709 178.187C333.963 178.13 334.235 178.038 334.525 177.909V178.765C334.268 178.887 334.008 178.973 333.745 179.025C333.482 179.075 333.183 179.1 332.845 179.1ZM332.653 174.765C332.318 174.765 332.049 174.871 331.847 175.083C331.646 175.295 331.527 175.604 331.488 176.01H333.736C333.731 175.601 333.632 175.292 333.441 175.083C333.25 174.871 332.987 174.765 332.653 174.765ZM339.066 179.011L338.855 178.321H338.819C338.58 178.622 338.34 178.829 338.098 178.939C337.856 179.047 337.546 179.1 337.167 179.1C336.68 179.1 336.299 178.969 336.025 178.707C335.753 178.444 335.617 178.071 335.617 177.591C335.617 177.081 335.807 176.696 336.186 176.436C336.565 176.176 337.143 176.034 337.919 176.01L338.774 175.983V175.719C338.774 175.402 338.7 175.167 338.55 175.012C338.404 174.854 338.176 174.774 337.866 174.774C337.612 174.774 337.368 174.812 337.136 174.887C336.903 174.961 336.679 175.049 336.464 175.15L336.124 174.398C336.392 174.257 336.686 174.152 337.006 174.08C337.325 174.005 337.626 173.968 337.91 173.968C338.54 173.968 339.015 174.105 339.335 174.38C339.657 174.655 339.818 175.086 339.818 175.675V179.011H339.066ZM337.498 178.294C337.88 178.294 338.187 178.188 338.417 177.976C338.649 177.761 338.766 177.461 338.766 177.076V176.646L338.13 176.673C337.634 176.691 337.272 176.774 337.046 176.924C336.822 177.07 336.71 177.296 336.71 177.6C336.71 177.821 336.776 177.993 336.907 178.115C337.039 178.234 337.236 178.294 337.498 178.294Z" fill="#DFE6EB"/>
        <path d="M343.592 354.803H129.583C126.206 354.803 123.469 357.541 123.469 360.918V379.262C123.469 382.639 126.206 385.376 129.583 385.376H343.592C346.969 385.376 349.706 382.639 349.706 379.262V360.918C349.706 357.541 346.969 354.803 343.592 354.803Z" fill="#C7000F"/>
        <path d="M205.407 372.093C205.407 372.684 205.194 373.15 204.767 373.49C204.342 373.831 203.752 374.001 202.993 374.001C202.295 374.001 201.676 373.869 201.139 373.607V372.317C201.581 372.514 201.955 372.653 202.259 372.733C202.566 372.814 202.847 372.854 203.101 372.854C203.405 372.854 203.638 372.796 203.8 372.68C203.963 372.563 204.046 372.39 204.046 372.16C204.046 372.032 204.01 371.919 203.938 371.82C203.866 371.718 203.761 371.621 203.62 371.529C203.483 371.436 203.201 371.288 202.774 371.086C202.374 370.897 202.074 370.716 201.874 370.544C201.673 370.37 201.514 370.169 201.394 369.939C201.275 369.709 201.216 369.44 201.216 369.133C201.216 368.553 201.411 368.099 201.802 367.767C202.196 367.435 202.74 367.27 203.432 367.27C203.772 367.27 204.096 367.31 204.404 367.391C204.715 367.471 205.039 367.585 205.376 367.731L204.928 368.81C204.579 368.667 204.289 368.567 204.059 368.51C203.833 368.453 203.609 368.425 203.387 368.425C203.125 368.425 202.923 368.486 202.782 368.608C202.643 368.731 202.572 368.891 202.572 369.088C202.572 369.211 202.601 369.318 202.657 369.41C202.714 369.5 202.804 369.588 202.926 369.675C203.051 369.758 203.346 369.911 203.808 370.132C204.42 370.424 204.84 370.718 205.067 371.014C205.294 371.306 205.407 371.666 205.407 372.093ZM208.596 372.912C208.834 372.912 209.121 372.86 209.456 372.756V373.772C209.116 373.925 208.697 374.001 208.201 374.001C207.655 374.001 207.257 373.864 207.006 373.589C206.758 373.311 206.635 372.896 206.635 372.344V369.93H205.98V369.352L206.732 368.896L207.127 367.839H208V368.904H209.402V369.93H208V372.344C208 372.538 208.054 372.681 208.162 372.774C208.272 372.866 208.417 372.912 208.596 372.912ZM213.652 373.911L213.387 373.23H213.352C213.122 373.52 212.884 373.722 212.64 373.835C212.398 373.946 212.082 374.001 211.691 374.001C211.21 374.001 210.831 373.864 210.553 373.589C210.278 373.314 210.141 372.923 210.141 372.415C210.141 371.884 210.326 371.493 210.696 371.242C211.069 370.988 211.631 370.848 212.38 370.821L213.249 370.794V370.575C213.249 370.067 212.989 369.814 212.469 369.814C212.07 369.814 211.6 369.934 211.059 370.176L210.607 369.253C211.183 368.952 211.822 368.801 212.524 368.801C213.195 368.801 213.71 368.948 214.068 369.24C214.427 369.532 214.606 369.978 214.606 370.575V373.911H213.652ZM213.249 371.591L212.72 371.609C212.323 371.621 212.028 371.693 211.833 371.825C211.639 371.955 211.542 372.156 211.542 372.425C211.542 372.81 211.763 373.002 212.206 373.002C212.522 373.002 212.774 372.911 212.962 372.729C213.153 372.547 213.249 372.305 213.249 372.003V371.591ZM218.811 368.81C218.996 368.81 219.15 368.824 219.273 368.851L219.169 370.132C219.059 370.102 218.925 370.087 218.767 370.087C218.33 370.087 217.99 370.199 217.745 370.423C217.503 370.647 217.382 370.96 217.382 371.363V373.911H216.017V368.904H217.051L217.252 369.746H217.32C217.475 369.466 217.684 369.24 217.946 369.07C218.212 368.896 218.501 368.81 218.811 368.81ZM222.291 372.912C222.529 372.912 222.816 372.86 223.151 372.756V373.772C222.811 373.925 222.393 374.001 221.896 374.001C221.35 374.001 220.952 373.864 220.701 373.589C220.453 373.311 220.33 372.896 220.33 372.344V369.93H219.675V369.352L220.427 368.896L220.822 367.839H221.695V368.904H223.097V369.93H221.695V372.344C221.695 372.538 221.749 372.681 221.857 372.774C221.967 372.866 222.112 372.912 222.291 372.912ZM228.045 370.27H228.493C228.932 370.27 229.256 370.197 229.465 370.051C229.674 369.905 229.779 369.675 229.779 369.361C229.779 369.051 229.671 368.83 229.456 368.699C229.245 368.567 228.914 368.501 228.467 368.501H228.045V370.27ZM228.045 371.399V373.911H226.657V367.364H228.565C229.455 367.364 230.113 367.526 230.54 367.852C230.967 368.174 231.181 368.666 231.181 369.325C231.181 369.71 231.074 370.054 230.863 370.356C230.65 370.654 230.351 370.888 229.962 371.059C230.947 372.53 231.59 373.482 231.888 373.911H230.348L228.784 371.399H228.045ZM234.678 369.782C234.388 369.782 234.161 369.875 233.997 370.06C233.833 370.242 233.739 370.502 233.715 370.839H235.632C235.626 370.502 235.538 370.242 235.368 370.06C235.198 369.875 234.968 369.782 234.678 369.782ZM234.871 374.001C234.064 374.001 233.435 373.778 232.981 373.333C232.527 372.889 232.3 372.259 232.3 371.443C232.3 370.605 232.509 369.957 232.927 369.5C233.348 369.04 233.928 368.81 234.669 368.81C235.377 368.81 235.928 369.012 236.321 369.415C236.716 369.818 236.913 370.375 236.913 371.086V371.748H233.684C233.699 372.136 233.814 372.439 234.028 372.657C234.244 372.876 234.545 372.984 234.933 372.984C235.235 372.984 235.52 372.953 235.789 372.89C236.058 372.827 236.338 372.727 236.631 372.59V373.647C236.392 373.767 236.136 373.855 235.865 373.911C235.593 373.971 235.262 374.001 234.871 374.001ZM240.057 374.001C238.498 374.001 237.719 373.145 237.719 371.435C237.719 370.583 237.931 369.934 238.354 369.487C238.779 369.036 239.386 368.81 240.177 368.81C240.757 368.81 241.276 368.924 241.736 369.15L241.333 370.207C241.118 370.121 240.918 370.051 240.733 369.997C240.548 369.941 240.362 369.912 240.177 369.912C239.467 369.912 239.112 370.417 239.112 371.426C239.112 372.405 239.467 372.895 240.177 372.895C240.44 372.895 240.683 372.86 240.907 372.791C241.131 372.72 241.355 372.61 241.579 372.461V373.629C241.358 373.769 241.134 373.866 240.907 373.92C240.683 373.974 240.4 374.001 240.057 374.001ZM243.832 371.399C243.832 371.894 243.913 372.269 244.074 372.523C244.238 372.777 244.503 372.904 244.871 372.904C245.235 372.904 245.496 372.778 245.654 372.527C245.816 372.273 245.897 371.897 245.897 371.399C245.897 370.903 245.816 370.531 245.654 370.284C245.493 370.036 245.23 369.912 244.862 369.912C244.498 369.912 244.235 370.036 244.074 370.284C243.913 370.528 243.832 370.901 243.832 371.399ZM247.294 371.399C247.294 372.214 247.079 372.851 246.649 373.311C246.219 373.771 245.62 374.001 244.853 374.001C244.373 374.001 243.949 373.896 243.581 373.687C243.214 373.476 242.932 373.172 242.735 372.778C242.538 372.384 242.439 371.924 242.439 371.399C242.439 370.581 242.653 369.945 243.079 369.491C243.507 369.037 244.107 368.81 244.88 368.81C245.361 368.81 245.784 368.915 246.152 369.123C246.519 369.333 246.801 369.633 246.998 370.024C247.195 370.415 247.294 370.873 247.294 371.399ZM251.217 368.81C251.402 368.81 251.556 368.824 251.678 368.851L251.575 370.132C251.465 370.102 251.33 370.087 251.172 370.087C250.736 370.087 250.396 370.199 250.151 370.423C249.909 370.647 249.788 370.96 249.788 371.363V373.911H248.422V368.904H249.457L249.659 369.746H249.725C249.881 369.466 250.09 369.24 250.353 369.07C250.618 368.896 250.906 368.81 251.217 368.81ZM254.173 374.001C253.584 374.001 253.122 373.772 252.784 373.316C252.45 372.859 252.283 372.226 252.283 371.416C252.283 370.596 252.453 369.957 252.793 369.5C253.136 369.04 253.609 368.81 254.209 368.81C254.838 368.81 255.319 369.055 255.65 369.545H255.695C255.626 369.172 255.592 368.838 255.592 368.546V366.943H256.963V373.911H255.915L255.65 373.262H255.592C255.282 373.755 254.809 374.001 254.173 374.001ZM254.652 372.912C255.001 372.912 255.257 372.811 255.418 372.608C255.582 372.405 255.672 372.06 255.686 371.573V371.426C255.686 370.888 255.603 370.503 255.435 370.27C255.271 370.038 255.003 369.921 254.629 369.921C254.325 369.921 254.087 370.051 253.917 370.31C253.75 370.567 253.667 370.942 253.667 371.435C253.667 371.927 253.752 372.298 253.922 372.545C254.092 372.79 254.336 372.912 254.652 372.912ZM258.333 367.61C258.333 367.165 258.581 366.943 259.077 366.943C259.572 366.943 259.82 367.165 259.82 367.61C259.82 367.822 259.757 367.988 259.632 368.107C259.509 368.224 259.324 368.282 259.077 368.282C258.581 368.282 258.333 368.058 258.333 367.61ZM259.757 373.911H258.391V368.904H259.757V373.911ZM265.816 373.911H264.451V370.987C264.451 370.625 264.386 370.356 264.258 370.176C264.13 369.994 263.925 369.903 263.644 369.903C263.262 369.903 262.986 370.032 262.816 370.288C262.646 370.542 262.56 370.965 262.56 371.556V373.911H261.195V368.904H262.239L262.422 369.545H262.498C262.651 369.303 262.859 369.12 263.125 368.998C263.393 368.873 263.698 368.81 264.039 368.81C264.621 368.81 265.063 368.968 265.364 369.285C265.666 369.598 265.816 370.052 265.816 370.647V373.911ZM271.58 368.904V369.598L270.797 369.8C270.94 370.024 271.011 370.275 271.011 370.552C271.011 371.09 270.823 371.509 270.447 371.811C270.074 372.11 269.555 372.259 268.889 372.259L268.642 372.245L268.441 372.223C268.3 372.331 268.23 372.45 268.23 372.581C268.23 372.778 268.482 372.876 268.983 372.876H269.834C270.383 372.876 270.801 372.995 271.088 373.23C271.378 373.466 271.522 373.813 271.522 374.27C271.522 374.854 271.277 375.308 270.787 375.631C270.301 375.953 269.6 376.115 268.687 376.115C267.989 376.115 267.454 375.992 267.084 375.747C266.717 375.506 266.533 375.165 266.533 374.726C266.533 374.425 266.627 374.173 266.815 373.969C267.003 373.767 267.279 373.622 267.644 373.535C267.503 373.476 267.381 373.378 267.276 373.244C267.172 373.106 267.12 372.962 267.12 372.81C267.12 372.619 267.175 372.461 267.285 372.335C267.396 372.207 267.556 372.081 267.765 371.958C267.502 371.845 267.293 371.663 267.138 371.412C266.985 371.161 266.909 370.866 266.909 370.525C266.909 369.979 267.087 369.557 267.442 369.258C267.797 368.959 268.305 368.81 268.965 368.81C269.105 368.81 269.271 368.824 269.462 368.851C269.656 368.874 269.78 368.893 269.834 368.904H271.58ZM267.716 374.619C267.716 374.807 267.805 374.955 267.984 375.062C268.166 375.169 268.42 375.224 268.745 375.224C269.235 375.224 269.619 375.156 269.896 375.022C270.174 374.887 270.313 374.704 270.313 374.471C270.313 374.283 270.231 374.153 270.067 374.082C269.902 374.01 269.649 373.974 269.305 373.974H268.598C268.347 373.974 268.136 374.032 267.966 374.149C267.799 374.268 267.716 374.425 267.716 374.619ZM268.212 370.544C268.212 370.815 268.274 371.03 268.396 371.189C268.521 371.347 268.711 371.426 268.965 371.426C269.221 371.426 269.409 371.347 269.529 371.189C269.649 371.03 269.708 370.815 269.708 370.544C269.708 369.941 269.461 369.639 268.965 369.639C268.463 369.639 268.212 369.941 268.212 370.544Z" fill="white"/>
        <path d="M343.592 287.926H175.442C172.276 287.926 169.71 290.492 169.71 293.658V312.002C169.71 315.167 172.276 317.734 175.442 317.734H343.592C346.758 317.734 349.324 315.167 349.324 312.002V293.658C349.324 290.492 346.758 287.926 343.592 287.926Z" fill="white" stroke="#B5C4CF"/>
        <path d="M179.4 300.104H181.249C182.118 300.104 182.747 300.234 183.135 300.493C183.523 300.753 183.717 301.164 183.717 301.725C183.717 302.113 183.608 302.434 183.39 302.688C183.175 302.939 182.86 303.101 182.445 303.176V303.221C183.439 303.391 183.936 303.914 183.936 304.788C183.936 305.373 183.738 305.83 183.341 306.158C182.947 306.487 182.394 306.651 181.684 306.651H179.4V300.104ZM180.161 302.908H181.415C181.952 302.908 182.339 302.824 182.575 302.656C182.811 302.487 182.929 302.202 182.929 301.801C182.929 301.434 182.797 301.17 182.535 301.008C182.272 300.844 181.854 300.762 181.281 300.762H180.161V302.908ZM180.161 303.552V306.002H181.527C182.055 306.002 182.452 305.901 182.718 305.698C182.987 305.491 183.121 305.17 183.121 304.734C183.121 304.329 182.984 304.03 182.709 303.839C182.438 303.648 182.023 303.552 181.464 303.552H180.161ZM185.934 301.743V304.927C185.934 305.328 186.025 305.626 186.207 305.823C186.389 306.02 186.674 306.119 187.062 306.119C187.576 306.119 187.95 305.978 188.186 305.698C188.425 305.417 188.545 304.958 188.545 304.322V301.743H189.288V306.651H188.674L188.567 305.993H188.527C188.374 306.235 188.162 306.42 187.891 306.548C187.622 306.677 187.315 306.741 186.968 306.741C186.371 306.741 185.923 306.599 185.625 306.316C185.329 306.032 185.181 305.578 185.181 304.954V301.743H185.934ZM191.612 306.651H190.869V301.743H191.612V306.651ZM190.807 300.413C190.807 300.243 190.848 300.119 190.932 300.042C191.015 299.961 191.12 299.92 191.245 299.92C191.365 299.92 191.468 299.961 191.554 300.042C191.64 300.122 191.684 300.246 191.684 300.413C191.684 300.58 191.64 300.706 191.554 300.789C191.468 300.87 191.365 300.91 191.245 300.91C191.12 300.91 191.015 300.87 190.932 300.789C190.848 300.706 190.807 300.58 190.807 300.413ZM193.932 306.651H193.189V299.683H193.932V306.651ZM197.094 306.127C197.225 306.127 197.352 306.119 197.474 306.1C197.597 306.08 197.694 306.059 197.766 306.038V306.606C197.685 306.645 197.565 306.677 197.407 306.7C197.252 306.728 197.112 306.741 196.987 306.741C196.037 306.741 195.562 306.241 195.562 305.24V302.321H194.859V301.962L195.562 301.654L195.875 300.606H196.306V301.743H197.73V302.321H196.306V305.209C196.306 305.505 196.376 305.732 196.516 305.89C196.657 306.048 196.849 306.127 197.094 306.127ZM198.339 304.533V303.852H200.538V304.533H198.339ZM202.45 306.651H201.706V301.743H202.45V306.651ZM201.644 300.413C201.644 300.243 201.686 300.119 201.769 300.042C201.853 299.961 201.957 299.92 202.083 299.92C202.203 299.92 202.305 299.961 202.392 300.042C202.478 300.122 202.522 300.246 202.522 300.413C202.522 300.58 202.478 300.706 202.392 300.789C202.305 300.87 202.203 300.91 202.083 300.91C201.957 300.91 201.853 300.87 201.769 300.789C201.686 300.706 201.644 300.58 201.644 300.413ZM207.385 306.651V303.476C207.385 303.076 207.294 302.778 207.112 302.581C206.93 302.383 206.645 302.285 206.256 302.285C205.744 302.285 205.367 302.424 205.128 302.701C204.889 302.979 204.77 303.437 204.77 304.076V306.651H204.026V301.743H204.631L204.752 302.415H204.788C204.94 302.173 205.154 301.986 205.428 301.855C205.703 301.721 206.009 301.654 206.347 301.654C206.937 301.654 207.382 301.796 207.681 302.083C207.979 302.367 208.129 302.822 208.129 303.45V306.651H207.385ZM216.051 306.651L215.151 303.771C215.094 303.596 214.988 303.196 214.833 302.571H214.797C214.678 303.094 214.573 303.497 214.484 303.781L213.556 306.651H212.697L211.357 301.743H212.137C212.454 302.976 212.694 303.915 212.858 304.56C213.025 305.205 213.121 305.639 213.144 305.863H213.18C213.213 305.693 213.265 305.474 213.337 305.205C213.412 304.933 213.476 304.718 213.53 304.56L214.43 301.743H215.236L216.114 304.56C216.281 305.074 216.394 305.505 216.454 305.854H216.49C216.502 305.746 216.533 305.581 216.584 305.357C216.637 305.133 216.95 303.929 217.52 301.743H218.291L216.933 306.651H216.051ZM221.255 306.741C220.529 306.741 219.956 306.52 219.535 306.078C219.118 305.636 218.908 305.023 218.908 304.238C218.908 303.447 219.102 302.818 219.491 302.352C219.882 301.887 220.405 301.654 221.063 301.654C221.677 301.654 222.164 301.857 222.523 302.263C222.88 302.665 223.06 303.198 223.06 303.862V304.332H219.679C219.693 304.908 219.838 305.345 220.113 305.644C220.391 305.942 220.78 306.092 221.282 306.092C221.81 306.092 222.333 305.981 222.849 305.76V306.423C222.587 306.537 222.337 306.617 222.101 306.665C221.868 306.716 221.586 306.741 221.255 306.741ZM221.054 302.276C220.659 302.276 220.344 302.404 220.108 302.661C219.876 302.918 219.738 303.273 219.696 303.727H222.263C222.263 303.259 222.158 302.9 221.949 302.652C221.74 302.401 221.442 302.276 221.054 302.276ZM226.616 301.663C227.261 301.663 227.76 301.884 228.116 302.325C228.474 302.764 228.653 303.387 228.653 304.193C228.653 304.999 228.473 305.626 228.111 306.074C227.753 306.518 227.255 306.741 226.616 306.741C226.296 306.741 226.003 306.683 225.738 306.567C225.475 306.447 225.254 306.265 225.075 306.02H225.021L224.864 306.651H224.332V299.683H225.075V301.376C225.075 301.755 225.063 302.095 225.04 302.397H225.075C225.422 301.907 225.935 301.663 226.616 301.663ZM226.508 302.285C226 302.285 225.635 302.432 225.411 302.724C225.187 303.013 225.075 303.503 225.075 304.193C225.075 304.883 225.19 305.376 225.42 305.675C225.649 305.97 226.019 306.119 226.526 306.119C226.983 306.119 227.323 305.953 227.547 305.621C227.771 305.287 227.883 304.808 227.883 304.183C227.883 303.545 227.771 303.068 227.547 302.755C227.323 302.442 226.977 302.285 226.508 302.285ZM234.301 306.741C233.59 306.741 233.039 306.523 232.648 306.087C232.26 305.649 232.066 305.029 232.066 304.228C232.066 303.408 232.263 302.773 232.657 302.325C233.054 301.877 233.618 301.654 234.35 301.654C234.586 301.654 234.821 301.679 235.057 301.73C235.294 301.78 235.479 301.84 235.613 301.909L235.385 302.54C235.22 302.474 235.041 302.421 234.847 302.379C234.653 302.335 234.481 302.312 234.332 302.312C233.335 302.312 232.836 302.947 232.836 304.219C232.836 304.822 232.957 305.286 233.199 305.608C233.444 305.931 233.805 306.092 234.282 306.092C234.692 306.092 235.111 306.003 235.541 305.827V306.485C235.213 306.656 234.799 306.741 234.301 306.741ZM239.728 306.651L239.581 305.953H239.545C239.3 306.26 239.056 306.469 238.81 306.58C238.569 306.687 238.265 306.741 237.901 306.741C237.415 306.741 237.032 306.615 236.755 306.365C236.48 306.114 236.343 305.757 236.343 305.295C236.343 304.303 237.136 303.784 238.721 303.736L239.554 303.709V303.405C239.554 303.019 239.47 302.736 239.303 302.554C239.139 302.368 238.874 302.276 238.511 302.276C238.101 302.276 237.639 302.401 237.122 302.652L236.893 302.083C237.136 301.952 237.399 301.849 237.687 301.774C237.976 301.699 238.265 301.663 238.555 301.663C239.14 301.663 239.573 301.793 239.853 302.052C240.138 302.312 240.279 302.728 240.279 303.301V306.651H239.728ZM238.049 306.127C238.512 306.127 238.874 306 239.137 305.746C239.403 305.493 239.536 305.138 239.536 304.681V304.238L238.793 304.269C238.201 304.29 237.775 304.382 237.512 304.546C237.252 304.708 237.122 304.96 237.122 305.303C237.122 305.572 237.203 305.776 237.364 305.917C237.528 306.057 237.756 306.127 238.049 306.127ZM248.071 306.651V303.458C248.071 303.067 247.988 302.775 247.821 302.581C247.654 302.383 247.394 302.285 247.042 302.285C246.579 302.285 246.237 302.418 246.016 302.684C245.795 302.949 245.684 303.358 245.684 303.911V306.651H244.942V303.458C244.942 303.067 244.857 302.775 244.691 302.581C244.523 302.383 244.262 302.285 243.907 302.285C243.441 302.285 243.1 302.425 242.881 302.706C242.666 302.983 242.558 303.44 242.558 304.076V306.651H241.815V301.743H242.42L242.541 302.415H242.577C242.717 302.176 242.914 301.989 243.168 301.855C243.424 301.721 243.711 301.654 244.027 301.654C244.795 301.654 245.297 301.931 245.532 302.487H245.568C245.714 302.23 245.927 302.026 246.204 301.877C246.482 301.728 246.798 301.654 247.153 301.654C247.709 301.654 248.124 301.796 248.399 302.083C248.676 302.367 248.815 302.822 248.815 303.45V306.651H248.071ZM252.425 306.741C251.699 306.741 251.126 306.52 250.705 306.078C250.287 305.636 250.078 305.023 250.078 304.238C250.078 303.447 250.272 302.818 250.66 302.352C251.051 301.887 251.575 301.654 252.232 301.654C252.847 301.654 253.334 301.857 253.692 302.263C254.051 302.665 254.23 303.198 254.23 303.862V304.332H250.848C250.863 304.908 251.008 305.345 251.283 305.644C251.561 305.942 251.95 306.092 252.452 306.092C252.98 306.092 253.503 305.981 254.019 305.76V306.423C253.756 306.537 253.507 306.617 253.271 306.665C253.038 306.716 252.756 306.741 252.425 306.741ZM252.223 302.276C251.829 302.276 251.514 302.404 251.278 302.661C251.045 302.918 250.908 303.273 250.867 303.727H253.432C253.432 303.259 253.328 302.9 253.119 302.652C252.91 302.401 252.611 302.276 252.223 302.276ZM257.741 301.654C257.959 301.654 258.154 301.671 258.327 301.707L258.225 302.397C258.021 302.352 257.842 302.33 257.687 302.33C257.29 302.33 256.95 302.491 256.666 302.814C256.385 303.136 256.245 303.538 256.245 304.018V306.651H255.501V301.743H256.115L256.2 302.652H256.236C256.418 302.333 256.637 302.086 256.894 301.913C257.151 301.74 257.433 301.654 257.741 301.654ZM262.264 306.651L262.116 305.953H262.081C261.835 306.26 261.591 306.469 261.346 306.58C261.104 306.687 260.801 306.741 260.437 306.741C259.95 306.741 259.568 306.615 259.29 306.365C259.016 306.114 258.878 305.757 258.878 305.295C258.878 304.303 259.671 303.784 261.256 303.736L262.089 303.709V303.405C262.089 303.019 262.006 302.736 261.838 302.554C261.674 302.368 261.41 302.276 261.046 302.276C260.637 302.276 260.174 302.401 259.658 302.652L259.429 302.083C259.671 301.952 259.935 301.849 260.222 301.774C260.511 301.699 260.801 301.663 261.091 301.663C261.675 301.663 262.109 301.793 262.389 302.052C262.673 302.312 262.814 302.728 262.814 303.301V306.651H262.264ZM260.584 306.127C261.047 306.127 261.41 306 261.672 305.746C261.938 305.493 262.071 305.138 262.071 304.681V304.238L261.328 304.269C260.737 304.29 260.31 304.382 260.047 304.546C259.788 304.708 259.658 304.96 259.658 305.303C259.658 305.572 259.738 305.776 259.899 305.917C260.064 306.057 260.292 306.127 260.584 306.127Z" fill="black"/>
        <path d="M340.421 301.223C340.346 301.148 340.255 301.11 340.152 301.11H334.802C334.699 301.11 334.609 301.148 334.533 301.223C334.457 301.3 334.42 301.389 334.42 301.492C334.42 301.595 334.457 301.686 334.533 301.761L337.208 304.436C337.284 304.512 337.374 304.55 337.477 304.55C337.58 304.55 337.671 304.512 337.746 304.436L340.421 301.761C340.496 301.686 340.534 301.595 340.534 301.492C340.534 301.389 340.496 301.3 340.421 301.223Z" fill="#B5C4CF"/>
        <path d="M154.041 287.544H129.583C126.206 287.544 123.469 290.281 123.469 293.658V312.002C123.469 315.379 126.206 318.116 129.583 318.116H154.041C157.418 318.116 160.156 315.379 160.156 312.002V293.658C160.156 290.281 157.418 287.544 154.041 287.544Z" fill="#EDF8FF"/>
        <path d="M148.272 299.916C148.009 299.749 147.684 299.726 147.401 299.857L145.553 300.71V300.677C145.553 300.238 145.195 299.88 144.755 299.88H143.622V298.673C143.622 298.274 143.298 297.949 142.898 297.949H135.175C135.042 297.949 134.933 298.057 134.933 298.19C134.933 298.323 135.042 298.431 135.175 298.431H142.898C143.031 298.431 143.14 298.54 143.14 298.673V299.88H135.732C135.291 299.88 134.933 300.238 134.933 300.677V306.805C134.933 307.245 135.291 307.604 135.732 307.604H144.755C145.195 307.604 145.553 307.245 145.553 306.805V306.774L147.401 307.627C147.523 307.683 147.653 307.711 147.783 307.711C147.953 307.711 148.123 307.663 148.272 307.567C148.534 307.399 148.691 307.113 148.691 306.801V300.682C148.691 300.37 148.534 300.084 148.272 299.916ZM145.071 306.805C145.071 306.979 144.929 307.121 144.755 307.121H135.732C135.557 307.121 135.416 306.979 135.416 306.805V300.677C135.416 300.504 135.557 300.363 135.732 300.363H144.755C144.929 300.363 145.071 300.504 145.071 300.677V300.932V306.551V306.805ZM148.208 306.801C148.208 306.95 148.137 307.08 148.012 307.16C147.887 307.24 147.738 307.251 147.603 307.188L145.553 306.243V301.241L147.603 300.295C147.738 300.232 147.887 300.243 148.012 300.323C148.136 300.402 148.208 300.534 148.208 300.682V306.801Z" fill="#153C55"/>
        <path d="M343.592 239.01H175.442C172.276 239.01 169.71 241.576 169.71 244.742V263.086C169.71 266.251 172.276 268.818 175.442 268.818H343.592C346.758 268.818 349.324 266.251 349.324 263.086V244.742C349.324 241.576 346.758 239.01 343.592 239.01Z" fill="white" stroke="#B5C4CF"/>
        <path d="M179.4 251.188H181.249C182.118 251.188 182.747 251.318 183.135 251.577C183.523 251.837 183.717 252.247 183.717 252.809C183.717 253.197 183.608 253.518 183.39 253.771C183.175 254.023 182.86 254.185 182.445 254.26V254.305C183.439 254.475 183.936 254.997 183.936 255.872C183.936 256.457 183.738 256.914 183.341 257.242C182.947 257.571 182.394 257.735 181.684 257.735H179.4V251.188ZM180.161 253.992H181.415C181.952 253.992 182.339 253.908 182.575 253.74C182.811 253.57 182.929 253.285 182.929 252.885C182.929 252.518 182.797 252.254 182.535 252.092C182.272 251.928 181.854 251.846 181.281 251.846H180.161V253.992ZM180.161 254.636V257.086H181.527C182.055 257.086 182.452 256.985 182.718 256.781C182.987 256.575 183.121 256.254 183.121 255.818C183.121 255.412 182.984 255.114 182.709 254.923C182.438 254.731 182.023 254.636 181.464 254.636H180.161ZM185.934 252.827V256.011C185.934 256.411 186.025 256.709 186.207 256.907C186.389 257.104 186.674 257.202 187.062 257.202C187.576 257.202 187.95 257.062 188.186 256.781C188.425 256.501 188.545 256.042 188.545 255.406V252.827H189.288V257.735H188.674L188.567 257.077H188.527C188.374 257.319 188.162 257.504 187.891 257.632C187.622 257.76 187.315 257.825 186.968 257.825C186.371 257.825 185.923 257.683 185.625 257.4C185.329 257.115 185.181 256.662 185.181 256.038V252.827H185.934ZM191.612 257.735H190.869V252.827H191.612V257.735ZM190.807 251.497C190.807 251.326 190.848 251.203 190.932 251.125C191.015 251.044 191.12 251.004 191.245 251.004C191.365 251.004 191.468 251.044 191.554 251.125C191.64 251.206 191.684 251.33 191.684 251.497C191.684 251.664 191.64 251.79 191.554 251.873C191.468 251.954 191.365 251.994 191.245 251.994C191.12 251.994 191.015 251.954 190.932 251.873C190.848 251.79 190.807 251.664 190.807 251.497ZM193.932 257.735H193.189V250.767H193.932V257.735ZM197.094 257.211C197.225 257.211 197.352 257.202 197.474 257.184C197.597 257.163 197.694 257.143 197.766 257.121V257.69C197.685 257.729 197.565 257.76 197.407 257.784C197.252 257.812 197.112 257.825 196.987 257.825C196.037 257.825 195.562 257.325 195.562 256.324V253.405H194.859V253.046L195.562 252.737L195.875 251.689H196.306V252.827H197.73V253.405H196.306V256.293C196.306 256.589 196.376 256.816 196.516 256.974C196.657 257.132 196.849 257.211 197.094 257.211ZM198.339 255.617V254.936H200.538V255.617H198.339ZM202.45 257.735H201.706V252.827H202.45V257.735ZM201.644 251.497C201.644 251.326 201.686 251.203 201.769 251.125C201.853 251.044 201.957 251.004 202.083 251.004C202.203 251.004 202.305 251.044 202.392 251.125C202.478 251.206 202.522 251.33 202.522 251.497C202.522 251.664 202.478 251.79 202.392 251.873C202.305 251.954 202.203 251.994 202.083 251.994C201.957 251.994 201.853 251.954 201.769 251.873C201.686 251.79 201.644 251.664 201.644 251.497ZM207.385 257.735V254.56C207.385 254.16 207.294 253.862 207.112 253.664C206.93 253.467 206.645 253.369 206.256 253.369C205.744 253.369 205.367 253.508 205.128 253.785C204.889 254.063 204.77 254.521 204.77 255.16V257.735H204.026V252.827H204.631L204.752 253.499H204.788C204.94 253.257 205.154 253.07 205.428 252.939C205.703 252.805 206.009 252.737 206.347 252.737C206.937 252.737 207.382 252.88 207.681 253.167C207.979 253.451 208.129 253.906 208.129 254.534V257.735H207.385ZM218.299 257.735V254.542C218.299 254.151 218.216 253.859 218.048 253.664C217.881 253.467 217.622 253.369 217.269 253.369C216.806 253.369 216.465 253.502 216.244 253.768C216.023 254.033 215.912 254.442 215.912 254.994V257.735H215.169V254.542C215.169 254.151 215.085 253.859 214.918 253.664C214.751 253.467 214.49 253.369 214.134 253.369C213.669 253.369 213.326 253.509 213.109 253.79C212.894 254.067 212.786 254.524 212.786 255.16V257.735H212.043V252.827H212.648L212.768 253.499H212.804C212.944 253.26 213.141 253.073 213.395 252.939C213.652 252.805 213.939 252.737 214.255 252.737C215.022 252.737 215.524 253.015 215.76 253.57H215.796C215.942 253.314 216.154 253.11 216.432 252.961C216.709 252.812 217.026 252.737 217.381 252.737C217.937 252.737 218.352 252.88 218.626 253.167C218.904 253.451 219.043 253.906 219.043 254.534V257.735H218.299ZM221.322 257.735H220.579V252.827H221.322V257.735ZM220.516 251.497C220.516 251.326 220.558 251.203 220.642 251.125C220.725 251.044 220.83 251.004 220.955 251.004C221.074 251.004 221.177 251.044 221.264 251.125C221.35 251.206 221.394 251.33 221.394 251.497C221.394 251.664 221.35 251.79 221.264 251.873C221.177 251.954 221.074 251.994 220.955 251.994C220.83 251.994 220.725 251.954 220.642 251.873C220.558 251.79 220.516 251.664 220.516 251.497ZM224.86 257.825C224.15 257.825 223.599 257.607 223.207 257.171C222.819 256.732 222.625 256.113 222.625 255.312C222.625 254.491 222.822 253.857 223.217 253.409C223.613 252.961 224.178 252.737 224.91 252.737C225.145 252.737 225.381 252.763 225.617 252.814C225.853 252.864 226.038 252.924 226.172 252.993L225.944 253.624C225.779 253.558 225.601 253.505 225.406 253.463C225.212 253.418 225.041 253.395 224.891 253.395C223.895 253.395 223.395 254.031 223.395 255.303C223.395 255.906 223.516 256.369 223.759 256.692C224.003 257.014 224.365 257.176 224.842 257.176C225.251 257.176 225.671 257.087 226.1 256.911V257.569C225.773 257.74 225.359 257.825 224.86 257.825ZM229.508 252.737C229.726 252.737 229.922 252.755 230.095 252.791L229.992 253.481C229.789 253.436 229.61 253.414 229.455 253.414C229.058 253.414 228.717 253.575 228.434 253.898C228.153 254.219 228.013 254.621 228.013 255.102V257.735H227.27V252.827H227.883L227.968 253.736H228.004C228.186 253.417 228.406 253.17 228.662 252.997C228.919 252.824 229.201 252.737 229.508 252.737ZM235.25 255.276C235.25 256.077 235.048 256.702 234.645 257.153C234.243 257.601 233.685 257.825 232.975 257.825C232.536 257.825 232.146 257.721 231.806 257.516C231.466 257.309 231.203 257.014 231.018 256.629C230.833 256.244 230.741 255.793 230.741 255.276C230.741 254.476 230.94 253.854 231.341 253.409C231.74 252.961 232.296 252.737 233.006 252.737C233.693 252.737 234.238 252.966 234.641 253.422C235.047 253.879 235.25 254.498 235.25 255.276ZM231.51 255.276C231.51 255.904 231.636 256.382 231.887 256.709C232.138 257.038 232.506 257.202 232.993 257.202C233.48 257.202 233.848 257.04 234.099 256.714C234.353 256.385 234.48 255.906 234.48 255.276C234.48 254.653 234.353 254.18 234.099 253.857C233.848 253.531 233.477 253.369 232.984 253.369C232.497 253.369 232.13 253.528 231.882 253.848C231.635 254.167 231.51 254.644 231.51 255.276ZM238.842 257.825C238.522 257.825 238.229 257.767 237.964 257.65C237.701 257.53 237.48 257.348 237.301 257.104H237.247C237.283 257.39 237.301 257.662 237.301 257.919V259.939H236.558V252.827H237.162L237.266 253.499H237.301C237.493 253.23 237.715 253.036 237.969 252.916C238.222 252.797 238.514 252.737 238.842 252.737C239.493 252.737 239.994 252.96 240.346 253.405C240.702 253.849 240.879 254.473 240.879 255.276C240.879 256.083 240.699 256.709 240.337 257.157C239.98 257.602 239.481 257.825 238.842 257.825ZM238.735 253.369C238.232 253.369 237.87 253.508 237.646 253.785C237.422 254.063 237.307 254.504 237.301 255.111V255.276C237.301 255.967 237.416 256.46 237.646 256.759C237.876 257.054 238.245 257.202 238.752 257.202C239.176 257.202 239.507 257.031 239.746 256.687C239.988 256.344 240.109 255.871 240.109 255.267C240.109 254.656 239.988 254.187 239.746 253.862C239.507 253.533 239.17 253.369 238.735 253.369ZM245.542 257.735V254.56C245.542 254.16 245.451 253.862 245.268 253.664C245.086 253.467 244.801 253.369 244.413 253.369C243.896 253.369 243.518 253.509 243.28 253.79C243.044 254.07 242.926 254.53 242.926 255.169V257.735H242.182V250.767H242.926V252.876C242.926 253.13 242.914 253.34 242.89 253.508H242.935C243.081 253.272 243.289 253.087 243.557 252.952C243.829 252.815 244.138 252.747 244.484 252.747C245.084 252.747 245.534 252.889 245.833 253.176C246.134 253.46 246.285 253.912 246.285 254.534V257.735H245.542ZM252.053 255.276C252.053 256.077 251.852 256.702 251.448 257.153C251.045 257.601 250.489 257.825 249.778 257.825C249.339 257.825 248.95 257.721 248.61 257.516C248.269 257.309 248.006 257.014 247.821 256.629C247.636 256.244 247.543 255.793 247.543 255.276C247.543 254.476 247.744 253.854 248.143 253.409C248.544 252.961 249.099 252.737 249.809 252.737C250.496 252.737 251.041 252.966 251.444 253.422C251.85 253.879 252.053 254.498 252.053 255.276ZM248.314 255.276C248.314 255.904 248.439 256.382 248.69 256.709C248.94 257.038 249.31 257.202 249.796 257.202C250.283 257.202 250.651 257.04 250.902 256.714C251.156 256.385 251.283 255.906 251.283 255.276C251.283 254.653 251.156 254.18 250.902 253.857C250.651 253.531 250.28 253.369 249.787 253.369C249.3 253.369 248.933 253.528 248.685 253.848C248.438 254.167 248.314 254.644 248.314 255.276ZM256.72 257.735V254.56C256.72 254.16 256.629 253.862 256.446 253.664C256.264 253.467 255.979 253.369 255.591 253.369C255.077 253.369 254.701 253.508 254.463 253.785C254.223 254.063 254.104 254.521 254.104 255.16V257.735H253.361V252.827H253.965L254.087 253.499H254.122C254.275 253.257 254.488 253.07 254.762 252.939C255.037 252.805 255.343 252.737 255.68 252.737C256.272 252.737 256.717 252.88 257.015 253.167C257.314 253.451 257.463 253.906 257.463 254.534V257.735H256.72ZM261.068 257.825C260.343 257.825 259.769 257.604 259.348 257.162C258.93 256.72 258.721 256.106 258.721 255.321C258.721 254.53 258.916 253.901 259.304 253.436C259.694 252.97 260.219 252.737 260.875 252.737C261.491 252.737 261.977 252.941 262.336 253.347C262.694 253.749 262.873 254.282 262.873 254.945V255.416H259.492C259.506 255.992 259.652 256.429 259.926 256.728C260.203 257.026 260.593 257.176 261.095 257.176C261.624 257.176 262.146 257.065 262.662 256.844V257.507C262.399 257.621 262.15 257.701 261.915 257.749C261.682 257.799 261.4 257.825 261.068 257.825ZM260.867 253.36C260.472 253.36 260.158 253.488 259.921 253.745C259.689 254.002 259.551 254.357 259.509 254.811H262.076C262.076 254.342 261.971 253.984 261.763 253.736C261.553 253.485 261.254 253.36 260.867 253.36Z" fill="black"/>
        <path d="M340.421 252.307C340.346 252.231 340.255 252.194 340.152 252.194H334.802C334.699 252.194 334.609 252.231 334.533 252.307C334.457 252.384 334.42 252.473 334.42 252.576C334.42 252.679 334.457 252.769 334.533 252.845L337.208 255.52C337.284 255.596 337.374 255.633 337.477 255.633C337.58 255.633 337.671 255.596 337.746 255.52L340.421 252.845C340.496 252.769 340.534 252.679 340.534 252.576C340.534 252.473 340.496 252.384 340.421 252.307Z" fill="#B5C4CF"/>
        <path d="M154.041 238.627H129.583C126.206 238.627 123.469 241.365 123.469 244.742V263.085C123.469 266.462 126.206 269.2 129.583 269.2H154.041C157.418 269.2 160.156 266.462 160.156 263.085V244.742C160.156 241.365 157.418 238.627 154.041 238.627Z" fill="#DFE6EB"/>
        <path d="M145.086 253.677C144.958 253.677 144.855 253.782 144.855 253.914V255.337C144.855 257.168 143.406 258.658 141.625 258.658C139.843 258.658 138.394 257.168 138.394 255.337V253.914C138.394 253.782 138.291 253.677 138.164 253.677C138.036 253.677 137.933 253.782 137.933 253.914V255.337C137.933 257.349 139.466 258.996 141.394 259.12V260.318H140.24C140.113 260.318 140.01 260.424 140.01 260.556C140.01 260.686 140.113 260.793 140.24 260.793H143.009C143.136 260.793 143.24 260.686 143.24 260.556C143.24 260.424 143.136 260.318 143.009 260.318H141.855V259.12C143.783 258.996 145.316 257.349 145.316 255.337V253.914C145.316 253.782 145.213 253.677 145.086 253.677Z" fill="#8595A9"/>
        <path d="M141.625 257.946C143.024 257.946 144.163 256.775 144.163 255.337V249.644C144.163 248.206 143.024 247.035 141.625 247.035C140.225 247.035 139.087 248.206 139.087 249.644V255.337C139.087 256.775 140.225 257.946 141.625 257.946ZM139.548 249.644C139.548 248.467 140.48 247.51 141.625 247.51C142.77 247.51 143.701 248.467 143.701 249.644V255.337C143.701 256.514 142.77 257.472 141.625 257.472C140.48 257.472 139.548 256.514 139.548 255.337V249.644Z" fill="#8595A9"/>
        <path d="M148.194 247.754L134.933 260.028L135.431 260.596L148.691 248.322L148.194 247.754Z" fill="#8595A9"/>
        <path d="M342.827 94.936C342.827 95.7768 343.43 96.4646 344.165 96.4646C344.901 96.4646 345.502 95.7768 345.502 94.936C345.502 94.0953 344.901 93.4074 344.165 93.4074C343.43 93.4074 342.827 94.0953 342.827 94.936ZM342.827 85.7642C342.827 86.605 343.43 87.2929 344.165 87.2929C344.901 87.2929 345.502 86.605 345.502 85.7642C345.502 84.9235 344.901 84.2356 344.165 84.2356C343.43 84.2356 342.827 84.9235 342.827 85.7642ZM342.827 90.3501C342.827 91.1909 343.43 91.8788 344.165 91.8788C344.901 91.8788 345.502 91.1909 345.502 90.3501C345.502 89.5094 344.901 88.8215 344.165 88.8215C343.43 88.8215 342.827 89.5094 342.827 90.3501Z" fill="#153C55"/>
        <path d="M328.28 96.4646H326.802C326.507 96.4646 326.262 96.2434 326.233 95.9502L326.081 95.042C325.797 94.9535 325.52 94.8386 325.256 94.6995L324.495 95.2427C324.404 95.3181 324.276 95.3642 324.144 95.3642C323.992 95.3642 323.848 95.3046 323.739 95.1964L322.695 94.1513C322.486 93.9426 322.47 93.6132 322.656 93.3848L323.191 92.6353C323.052 92.3707 322.938 92.0938 322.849 91.8099L321.928 91.6561C321.648 91.6293 321.427 91.3847 321.427 91.0891V89.6112C321.427 89.3159 321.647 89.0714 321.941 89.0421L322.849 88.8901C322.938 88.605 323.053 88.3284 323.191 88.0649L322.649 87.3042C322.469 87.087 322.486 86.7577 322.695 86.5491L323.74 85.5036C323.941 85.3025 324.287 85.2858 324.506 85.4652L325.256 86.0006C325.519 85.8617 325.796 85.747 326.081 85.6582L326.235 84.7369C326.262 84.4569 326.507 84.2356 326.802 84.2356H328.28C328.575 84.2356 328.82 84.4566 328.85 84.7497L329.001 85.6582C329.286 85.7469 329.563 85.8617 329.826 86.0006L330.587 85.4574C330.678 85.3821 330.806 85.3363 330.938 85.3363C331.091 85.3363 331.234 85.3957 331.342 85.5036L332.387 86.5491C332.595 86.7571 332.612 87.0862 332.426 87.3148L331.891 88.0649C332.03 88.3284 332.145 88.605 332.233 88.8901L333.154 89.0439C333.435 89.0714 333.656 89.3159 333.656 89.6112V91.0891C333.656 91.3847 333.435 91.629 333.14 91.6575L332.233 91.8093C332.145 92.0946 332.029 92.3714 331.891 92.635L332.434 93.3954C332.613 93.6134 332.596 93.9429 332.387 94.1511L331.342 95.196C331.142 95.3969 330.796 95.4146 330.575 95.2342L329.826 94.6993C329.562 94.8386 329.285 94.9535 329.001 95.0419L328.847 95.9635C328.82 96.2434 328.575 96.4646 328.28 96.4646ZM325.241 94.2594C325.275 94.2594 325.309 94.2679 325.34 94.2853C325.648 94.4579 325.976 94.5938 326.315 94.6898C326.39 94.7111 326.447 94.7739 326.46 94.8511L326.633 95.8971C326.644 95.9944 326.717 96.0605 326.802 96.0605H328.28C328.365 96.0605 328.438 95.9946 328.447 95.9104L328.623 94.8511C328.636 94.7741 328.692 94.7112 328.767 94.6901C329.106 94.5942 329.433 94.4582 329.742 94.2855C329.81 94.2471 329.894 94.2517 329.958 94.2974L330.821 94.9139C330.908 94.984 330.997 94.9695 331.055 94.9107L332.101 93.8654C332.162 93.8041 332.167 93.7078 332.112 93.6409L331.488 92.7673C331.442 92.7037 331.438 92.6194 331.476 92.5509C331.648 92.2442 331.785 91.9164 331.88 91.5765C331.901 91.5011 331.964 91.4449 332.041 91.432L333.088 91.2576C333.185 91.2475 333.251 91.1746 333.251 91.0895V89.6116C333.251 89.5265 333.186 89.4531 333.101 89.4449L332.042 89.2686C331.964 89.2557 331.901 89.1995 331.88 89.1242C331.785 88.7843 331.648 88.4565 331.477 88.1502C331.438 88.0816 331.442 87.9974 331.488 87.9337L332.105 87.0703C332.167 86.9931 332.162 86.8969 332.102 86.8359L331.056 85.7901C330.997 85.7314 330.896 85.7263 330.832 85.7786L329.958 86.4037C329.894 86.4493 329.81 86.4537 329.742 86.4156C329.435 86.2432 329.107 86.1072 328.768 86.011C328.692 85.99 328.636 85.9269 328.623 85.8498L328.449 84.8039C328.438 84.7044 328.367 84.6398 328.28 84.6398H326.802C326.715 84.6398 326.644 84.7042 326.635 84.7899L326.46 85.8489C326.447 85.9261 326.39 85.989 326.315 86.0102C325.975 86.1066 325.647 86.2424 325.341 86.4147C325.273 86.453 325.188 86.4485 325.124 86.4028L324.261 85.7859C324.173 85.7164 324.085 85.7304 324.026 85.7895L322.98 86.8349C322.919 86.8959 322.915 86.9921 322.97 87.0586L323.594 87.933C323.64 87.9968 323.644 88.081 323.606 88.1494C323.434 88.4557 323.298 88.7834 323.201 89.1235C323.181 89.1988 323.117 89.2549 323.04 89.2678L321.994 89.4423C321.895 89.4527 321.831 89.5245 321.831 89.6112V91.0891C321.831 91.1757 321.895 91.2471 321.981 91.2555L323.04 91.4316C323.117 91.4444 323.18 91.5007 323.201 91.5761C323.297 91.9142 323.433 92.2422 323.606 92.5509C323.644 92.6192 323.639 92.7033 323.594 92.767L322.977 93.6299C322.914 93.7076 322.919 93.8038 322.98 93.865L324.025 94.9101C324.085 94.9693 324.186 94.9746 324.249 94.9216L325.124 94.297C325.159 94.2721 325.2 94.2594 325.241 94.2594ZM327.541 92.7689C326.207 92.7689 325.122 91.6838 325.122 90.3499C325.122 89.0159 326.207 87.9305 327.541 87.9305C328.876 87.9305 329.96 89.0159 329.96 90.3499C329.96 91.6836 328.875 92.7689 327.541 92.7689ZM327.541 88.3346C326.43 88.3346 325.526 89.2387 325.526 90.3499C325.526 91.4609 326.43 92.3648 327.541 92.3648C328.652 92.3648 329.557 91.4609 329.557 90.3499C329.556 89.2387 328.652 88.3346 327.541 88.3346Z" fill="#153C55"/>
        <path d="M126.418 90.3144H127.027C127.597 90.3144 128.023 90.2029 128.305 89.98C128.588 89.7531 128.729 89.4247 128.729 88.9948C128.729 88.5609 128.61 88.2404 128.371 88.0334C128.136 87.8264 127.766 87.7229 127.26 87.7229H126.418V90.3144ZM130.598 88.929C130.598 89.8685 130.304 90.5871 129.715 91.0846C129.129 91.5823 128.295 91.8311 127.213 91.8311H126.418V94.9361H124.567V86.2062H127.356C128.415 86.2062 129.219 86.4351 129.768 86.8929C130.322 87.3467 130.598 88.0254 130.598 88.929ZM137.01 92.0677C137.01 93.0012 136.775 93.7309 136.305 94.2569C135.834 94.7794 135.185 95.0406 134.356 95.0406C133.844 95.0406 133.389 94.9204 132.992 94.6801C132.595 94.4398 132.288 94.0949 132.072 93.6456C131.857 93.1962 131.749 92.6703 131.749 92.0677C131.749 91.1342 131.982 90.4079 132.449 89.889C132.915 89.3665 133.563 89.1052 134.392 89.1052C135.193 89.1052 135.829 89.3717 136.299 89.9046C136.773 90.4376 137.01 91.1586 137.01 92.0677ZM132.647 92.0677C132.647 92.7992 132.793 93.3565 133.086 93.7397C133.379 94.1228 133.809 94.3143 134.377 94.3143C134.944 94.3143 135.375 94.1246 135.667 93.7448C135.963 93.3617 136.111 92.8027 136.111 92.0677C136.111 91.3397 135.963 90.7876 135.667 90.4114C135.375 90.0317 134.941 89.8419 134.366 89.8419C133.798 89.8419 133.37 90.0283 133.081 90.401C132.792 90.7736 132.647 91.3292 132.647 92.0677ZM141.148 89.1052C141.402 89.1052 141.63 89.1261 141.832 89.1679L141.712 89.9726C141.475 89.9203 141.266 89.8942 141.085 89.8942C140.622 89.8942 140.225 90.0823 139.894 90.4584C139.567 90.8346 139.403 91.3031 139.403 91.8639V94.9361H138.536V89.2097H139.251L139.351 90.2703H139.392C139.605 89.8977 139.861 89.6103 140.161 89.4083C140.46 89.2063 140.789 89.1052 141.148 89.1052ZM144.753 94.3248C144.906 94.3248 145.054 94.3143 145.197 94.2935C145.34 94.2691 145.453 94.2447 145.537 94.2203V94.8838C145.443 94.9292 145.303 94.9657 145.119 94.9936C144.938 95.0249 144.774 95.0406 144.628 95.0406C143.52 95.0406 142.966 94.4572 142.966 93.2903V89.8837H142.146V89.4658L142.966 89.1052L143.332 87.8826H143.834V89.2097H145.495V89.8837H143.834V93.2537C143.834 93.5986 143.915 93.8633 144.079 94.0479C144.243 94.2325 144.468 94.3248 144.753 94.3248ZM150.208 94.9361L150.035 94.121H149.994C149.708 94.4798 149.422 94.7236 149.137 94.8525C148.855 94.9779 148.501 95.0406 148.076 95.0406C147.508 95.0406 147.062 94.8943 146.739 94.6017C146.418 94.3091 146.258 93.8929 146.258 93.353C146.258 92.1966 147.183 91.5905 149.032 91.5348L150.004 91.5034V91.1481C150.004 90.6988 149.907 90.3679 149.711 90.1554C149.52 89.9395 149.212 89.8315 148.787 89.8315C148.31 89.8315 147.77 89.9778 147.167 90.2703L146.9 89.6068C147.183 89.4535 147.491 89.3334 147.825 89.2463C148.163 89.1592 148.501 89.1157 148.839 89.1157C149.522 89.1157 150.027 89.2672 150.354 89.5702C150.685 89.8733 150.85 90.3592 150.85 91.0279V94.9361H150.208ZM148.249 94.3248C148.788 94.3248 149.212 94.1768 149.518 93.8807C149.828 93.5846 149.983 93.1702 149.983 92.6372V92.1199L149.116 92.1565C148.426 92.1809 147.928 92.2889 147.622 92.4804C147.318 92.6685 147.167 92.9629 147.167 93.3635C147.167 93.6769 147.261 93.9155 147.449 94.0792C147.641 94.243 147.907 94.3248 148.249 94.3248ZM153.51 94.9361H152.643V89.2097H153.51V94.9361ZM152.569 87.6579C152.569 87.4594 152.618 87.3148 152.716 87.2243C152.813 87.1302 152.935 87.0832 153.081 87.0832C153.221 87.0832 153.341 87.1302 153.442 87.2243C153.543 87.3183 153.594 87.4629 153.594 87.6579C153.594 87.853 153.543 87.9993 153.442 88.0969C153.341 88.1909 153.221 88.2379 153.081 88.2379C152.935 88.2379 152.813 88.1909 152.716 88.0969C152.618 87.9993 152.569 87.853 152.569 87.6579ZM156.216 94.9361H155.349V86.8063H156.216V94.9361Z" fill="#153C55"/>
        <path d="M276.404 227.163L275.588 225.08H272.964L272.158 227.163H271.387L273.976 220.588H274.617L277.192 227.163H276.404ZM275.351 224.395L274.59 222.367C274.491 222.11 274.39 221.795 274.285 221.421C274.219 221.708 274.125 222.023 274.003 222.367L273.233 224.395H275.351ZM281.32 226.505H281.281C280.937 227.003 280.424 227.252 279.74 227.252C279.098 227.252 278.598 227.033 278.24 226.594C277.884 226.155 277.707 225.531 277.707 224.722C277.707 223.913 277.886 223.284 278.244 222.837C278.603 222.389 279.101 222.165 279.74 222.165C280.406 222.165 280.916 222.406 281.272 222.89H281.33L281.298 222.536L281.281 222.192V220.194H282.024V227.163H281.419L281.32 226.505ZM279.834 226.63C280.341 226.63 280.709 226.492 280.935 226.218C281.165 225.94 281.281 225.493 281.281 224.879V224.722C281.281 224.026 281.164 223.531 280.931 223.235C280.701 222.937 280.332 222.787 279.825 222.787C279.389 222.787 279.054 222.957 278.822 223.297C278.592 223.635 278.477 224.113 278.477 224.731C278.477 225.358 278.592 225.831 278.822 226.151C279.052 226.47 279.389 226.63 279.834 226.63ZM284.68 227.163L282.816 222.254H283.613L284.67 225.165C284.91 225.846 285.05 226.288 285.092 226.491H285.128C285.16 226.333 285.264 226.005 285.436 225.51C285.613 225.012 286.005 223.927 286.614 222.254H287.411L285.549 227.163H284.68ZM291.218 227.163L291.07 226.464H291.034C290.79 226.771 290.545 226.981 290.3 227.091C290.058 227.199 289.755 227.252 289.391 227.252C288.904 227.252 288.522 227.127 288.244 226.876C287.97 226.625 287.832 226.268 287.832 225.806C287.832 224.815 288.625 224.295 290.21 224.248L291.043 224.22V223.916C291.043 223.531 290.96 223.247 290.793 223.065C290.628 222.879 290.364 222.787 290 222.787C289.591 222.787 289.128 222.912 288.611 223.164L288.384 222.594C288.625 222.464 288.889 222.36 289.176 222.286C289.466 222.211 289.755 222.174 290.044 222.174C290.63 222.174 291.062 222.304 291.344 222.563C291.627 222.823 291.769 223.239 291.769 223.813V227.163H291.218ZM289.538 226.638C290.002 226.638 290.364 226.511 290.627 226.258C290.893 226.004 291.026 225.649 291.026 225.192V224.749L290.282 224.78C289.691 224.801 289.264 224.893 289.001 225.058C288.741 225.219 288.611 225.471 288.611 225.814C288.611 226.083 288.692 226.288 288.854 226.428C289.018 226.569 289.246 226.638 289.538 226.638ZM296.664 227.163V223.988C296.664 223.587 296.572 223.289 296.39 223.092C296.209 222.895 295.923 222.796 295.535 222.796C295.022 222.796 294.646 222.935 294.406 223.213C294.168 223.49 294.049 223.949 294.049 224.588V227.163H293.305V222.254H293.91L294.03 222.926H294.066C294.218 222.684 294.432 222.497 294.707 222.367C294.981 222.232 295.288 222.165 295.625 222.165C296.216 222.165 296.661 222.308 296.959 222.594C297.258 222.879 297.407 223.333 297.407 223.961V227.163H296.664ZM300.901 227.252C300.19 227.252 299.639 227.034 299.248 226.599C298.86 226.16 298.666 225.54 298.666 224.74C298.666 223.919 298.863 223.284 299.257 222.837C299.654 222.389 300.218 222.165 300.95 222.165C301.186 222.165 301.421 222.19 301.657 222.241C301.893 222.292 302.079 222.351 302.212 222.42L301.984 223.051C301.82 222.986 301.641 222.932 301.446 222.89C301.252 222.846 301.081 222.823 300.932 222.823C299.935 222.823 299.436 223.459 299.436 224.731C299.436 225.334 299.557 225.797 299.799 226.119C300.043 226.442 300.405 226.603 300.882 226.603C301.291 226.603 301.711 226.515 302.141 226.339V226.997C301.813 227.167 301.399 227.252 300.901 227.252ZM305.383 227.252C304.658 227.252 304.085 227.031 303.664 226.589C303.246 226.148 303.036 225.534 303.036 224.749C303.036 223.958 303.23 223.329 303.619 222.863C304.01 222.398 304.534 222.165 305.191 222.165C305.805 222.165 306.292 222.368 306.651 222.774C307.009 223.177 307.188 223.709 307.188 224.373V224.843H303.807C303.822 225.419 303.966 225.856 304.242 226.155C304.519 226.453 304.909 226.603 305.41 226.603C305.938 226.603 306.461 226.492 306.978 226.271V226.934C306.715 227.048 306.466 227.128 306.23 227.176C305.996 227.227 305.714 227.252 305.383 227.252ZM305.182 222.787C304.787 222.787 304.472 222.915 304.237 223.172C304.004 223.429 303.866 223.784 303.825 224.238H306.391C306.391 223.77 306.286 223.411 306.077 223.164C305.869 222.912 305.57 222.787 305.182 222.787ZM311.801 226.505H311.761C311.417 227.003 310.903 227.252 310.22 227.252C309.578 227.252 309.078 227.033 308.72 226.594C308.364 226.155 308.187 225.531 308.187 224.722C308.187 223.913 308.366 223.284 308.724 222.837C309.083 222.389 309.581 222.165 310.22 222.165C310.886 222.165 311.396 222.406 311.752 222.89H311.81L311.778 222.536L311.761 222.192V220.194H312.504V227.163H311.899L311.801 226.505ZM310.314 226.63C310.822 226.63 311.188 226.492 311.415 226.218C311.645 225.94 311.761 225.493 311.761 224.879V224.722C311.761 224.026 311.644 223.531 311.411 223.235C311.182 222.937 310.812 222.787 310.305 222.787C309.869 222.787 309.534 222.957 309.302 223.297C309.072 223.635 308.957 224.113 308.957 224.731C308.957 225.358 309.072 225.831 309.302 226.151C309.532 226.47 309.869 226.63 310.314 226.63ZM320.274 225.421C320.274 225.997 320.065 226.446 319.647 226.768C319.229 227.091 318.662 227.252 317.945 227.252C317.169 227.252 316.571 227.152 316.154 226.952V226.218C316.422 226.331 316.715 226.421 317.032 226.486C317.348 226.552 317.661 226.585 317.972 226.585C318.48 226.585 318.862 226.489 319.118 226.298C319.375 226.104 319.503 225.836 319.503 225.492C319.503 225.266 319.458 225.08 319.365 224.937C319.276 224.79 319.123 224.656 318.908 224.534C318.696 224.411 318.372 224.273 317.937 224.118C317.327 223.899 316.891 223.641 316.629 223.343C316.369 223.044 316.239 222.655 316.239 222.174C316.239 221.669 316.429 221.267 316.808 220.969C317.187 220.671 317.688 220.521 318.313 220.521C318.963 220.521 319.562 220.641 320.108 220.879L319.871 221.542C319.331 221.316 318.805 221.202 318.294 221.202C317.891 221.202 317.577 221.288 317.35 221.462C317.123 221.635 317.009 221.875 317.009 222.182C317.009 222.409 317.051 222.596 317.135 222.743C317.218 222.886 317.359 223.019 317.556 223.141C317.755 223.261 318.06 223.393 318.469 223.54C319.156 223.784 319.627 224.047 319.884 224.328C320.144 224.608 320.274 224.973 320.274 225.421ZM323.575 227.252C322.849 227.252 322.276 227.031 321.855 226.589C321.437 226.148 321.228 225.534 321.228 224.749C321.228 223.958 321.422 223.329 321.81 222.863C322.201 222.398 322.725 222.165 323.382 222.165C323.997 222.165 324.484 222.368 324.842 222.774C325.201 223.177 325.379 223.709 325.379 224.373V224.843H321.998C322.013 225.419 322.158 225.856 322.432 226.155C322.71 226.453 323.1 226.603 323.602 226.603C324.13 226.603 324.653 226.492 325.168 226.271V226.934C324.906 227.048 324.657 227.128 324.421 227.176C324.188 227.227 323.906 227.252 323.575 227.252ZM323.373 222.787C322.979 222.787 322.664 222.915 322.428 223.172C322.195 223.429 322.058 223.784 322.016 224.238H324.582C324.582 223.77 324.478 223.411 324.269 223.164C324.059 222.912 323.761 222.787 323.373 222.787ZM328.236 226.638C328.368 226.638 328.495 226.63 328.617 226.612C328.739 226.591 328.836 226.57 328.908 226.549V227.118C328.828 227.157 328.708 227.188 328.55 227.212C328.395 227.239 328.255 227.252 328.129 227.252C327.179 227.252 326.705 226.752 326.705 225.752V222.832H326.002V222.474L326.705 222.165L327.018 221.117H327.448V222.254H328.872V222.832H327.448V225.72C327.448 226.016 327.519 226.243 327.659 226.401C327.799 226.56 327.992 226.638 328.236 226.638ZM331.479 226.638C331.61 226.638 331.737 226.63 331.859 226.612C331.982 226.591 332.079 226.57 332.151 226.549V227.118C332.07 227.157 331.951 227.188 331.792 227.212C331.637 227.239 331.497 227.252 331.372 227.252C330.422 227.252 329.947 226.752 329.947 225.752V222.832H329.245V222.474L329.947 222.165L330.261 221.117H330.691V222.254H332.115V222.832H330.691V225.72C330.691 226.016 330.761 226.243 330.901 226.401C331.041 226.56 331.234 226.638 331.479 226.638ZM333.879 227.163H333.136V222.254H333.879V227.163ZM333.073 220.924C333.073 220.754 333.115 220.63 333.198 220.553C333.282 220.472 333.386 220.431 333.512 220.431C333.632 220.431 333.735 220.472 333.821 220.553C333.908 220.633 333.951 220.757 333.951 220.924C333.951 221.092 333.908 221.217 333.821 221.3C333.735 221.381 333.632 221.421 333.512 221.421C333.386 221.421 333.282 221.381 333.198 221.3C333.115 221.217 333.073 221.092 333.073 220.924ZM338.815 227.163V223.988C338.815 223.587 338.724 223.289 338.542 223.092C338.359 222.895 338.074 222.796 337.686 222.796C337.173 222.796 336.796 222.935 336.558 223.213C336.318 223.49 336.199 223.949 336.199 224.588V227.163H335.455V222.254H336.06L336.182 222.926H336.217C336.37 222.684 336.583 222.497 336.857 222.367C337.132 222.232 337.438 222.165 337.776 222.165C338.367 222.165 338.812 222.308 339.11 222.594C339.408 222.879 339.558 223.333 339.558 223.961V227.163H338.815ZM345.106 222.254V222.724L344.198 222.832C344.281 222.937 344.356 223.074 344.422 223.244C344.487 223.411 344.52 223.601 344.52 223.813C344.52 224.293 344.356 224.677 344.027 224.964C343.699 225.25 343.248 225.394 342.675 225.394C342.528 225.394 342.392 225.382 342.263 225.358C341.947 225.525 341.789 225.736 341.789 225.989C341.789 226.124 341.844 226.223 341.954 226.289C342.064 226.352 342.254 226.383 342.523 226.383H343.391C343.923 226.383 344.331 226.495 344.614 226.719C344.901 226.943 345.044 227.269 345.044 227.695C345.044 228.239 344.826 228.652 344.39 228.936C343.955 229.223 343.319 229.366 342.483 229.366C341.841 229.366 341.345 229.247 340.996 229.008C340.649 228.769 340.476 228.431 340.476 227.996C340.476 227.697 340.572 227.439 340.763 227.221C340.954 227.003 341.222 226.855 341.569 226.777C341.443 226.721 341.338 226.633 341.251 226.513C341.167 226.394 341.125 226.255 341.125 226.096C341.125 225.918 341.173 225.761 341.269 225.626C341.364 225.492 341.515 225.363 341.721 225.237C341.468 225.133 341.26 224.955 341.098 224.704C340.94 224.453 340.861 224.167 340.861 223.844C340.861 223.307 341.023 222.893 341.345 222.603C341.667 222.311 342.124 222.165 342.716 222.165C342.972 222.165 343.203 222.195 343.41 222.254H345.106ZM341.192 227.987C341.192 228.253 341.305 228.454 341.529 228.591C341.753 228.729 342.074 228.798 342.492 228.798C343.115 228.798 343.576 228.704 343.875 228.516C344.177 228.33 344.328 228.078 344.328 227.758C344.328 227.493 344.245 227.307 344.081 227.203C343.917 227.102 343.608 227.051 343.154 227.051H342.263C341.925 227.051 341.663 227.131 341.474 227.293C341.286 227.454 341.192 227.685 341.192 227.987ZM341.596 223.826C341.596 224.17 341.693 224.429 341.887 224.605C342.08 224.782 342.351 224.87 342.697 224.87C343.423 224.87 343.786 224.517 343.786 223.813C343.786 223.075 343.418 222.707 342.684 222.707C342.334 222.707 342.066 222.801 341.878 222.989C341.69 223.177 341.596 223.456 341.596 223.826ZM349.28 225.824C349.28 226.281 349.111 226.633 348.77 226.881C348.43 227.128 347.952 227.252 347.337 227.252C346.686 227.252 346.179 227.149 345.814 226.943V226.254C346.05 226.373 346.303 226.467 346.571 226.536C346.843 226.605 347.104 226.638 347.355 226.638C347.743 226.638 348.041 226.577 348.251 226.455C348.459 226.33 348.564 226.14 348.564 225.886C348.564 225.695 348.48 225.532 348.313 225.398C348.149 225.261 347.827 225.1 347.346 224.915C346.889 224.744 346.564 224.597 346.37 224.471C346.179 224.343 346.035 224.198 345.94 224.037C345.847 223.875 345.801 223.683 345.801 223.459C345.801 223.059 345.964 222.744 346.289 222.514C346.614 222.281 347.061 222.165 347.628 222.165C348.157 222.165 348.673 222.273 349.178 222.487L348.913 223.092C348.421 222.889 347.974 222.787 347.574 222.787C347.222 222.787 346.956 222.843 346.777 222.953C346.598 223.064 346.508 223.216 346.508 223.41C346.508 223.541 346.541 223.653 346.607 223.745C346.676 223.838 346.785 223.927 346.934 224.01C347.083 224.093 347.37 224.215 347.794 224.373C348.376 224.585 348.768 224.798 348.972 225.013C349.178 225.228 349.28 225.498 349.28 225.824Z" fill="#B5C4CF"/>
    </g>
    <defs>
        <clipPath id="clip0">
            <rect width="244.581" height="340.12" fill="white" transform="translate(114.297 63.5991)"/>
        </clipPath>
    </defs>
</svg>
